<svg aria-hidden="true" style="position: absolute; width: 0; height: 0; overflow: hidden;" version="1.1"
    xmlns="http://www.w3.org/2000/svg" xmlns:xlink="http://www.w3.org/1999/xlink">
    <defs>
        <symbol id="dribble" viewBox="0 0 32 32" fill="#bcbcbc">
            <path
                d="M16.063 32c8.808 0 15.938-7.128 15.938-15.938 0-8.777-7.1-16.063-15.938-16.063-8.801 0-16.063 7.257-16.063 16.063 0 8.846 7.294 15.938 16.063 15.938zM7.836 27.514c1.162-4.428 5.301-8.030 10.595-9.625 1.241 3.663 2.008 7.531 2.24 11.46-1.445 0.502-2.995 0.777-4.609 0.777-3.064 0-5.904-0.968-8.226-2.611zM22.499 28.563c-0.28-3.823-1.026-7.553-2.228-11.138 3.263-0.664 6.664-0.539 9.755 0.297-0.558 4.727-3.469 8.743-7.527 10.841zM18.561 13.085c3.181-1.186 6.554-3.152 8.388-5.993 1.935 2.385 3.115 5.416 3.173 8.717-3.326-0.834-6.974-0.923-10.492-0.173-0.341-0.889-0.685-1.709-1.069-2.552zM25.62 5.666c-1.522 2.753-4.931 4.647-7.876 5.723-1.649-3.243-3.666-6.202-6.023-8.833 1.369-0.441 2.828-0.68 4.342-0.68 3.687 0 7.047 1.44 9.558 3.791zM9.864 3.303c2.377 2.561 4.413 5.493 6.059 8.678-4.112 1.182-8.935 1.586-13.713 1.011 0.945-4.267 3.817-7.818 7.654-9.689zM1.928 14.846c5.12 0.624 10.344 0.183 14.83-1.158 0.366 0.795 0.709 1.603 1.028 2.423-5.152 1.562-9.819 5.080-11.52 10.113-2.704-2.562-4.391-6.171-4.391-10.163 0-0.41 0.019-0.815 0.053-1.216z">
            </path>
        </symbol>
        <symbol id="facebook" viewBox="0 0 32 32" fill="#bcbcbc">
            <path
                d="M30.232 0.001h-28.466c-0.975 0-1.766 0.79-1.766 1.766v28.466c0 0.976 0.791 1.767 1.766 1.767h15.325v-12.392h-4.17v-4.83h4.17v-3.562c0-4.132 2.523-6.384 6.211-6.384 1.768 0 3.284 0.132 3.726 0.19v4.319l-2.558 0.001c-2.005 0-2.392 0.953-2.392 2.351v3.083h4.783l-0.625 4.83h-4.158v12.393h8.154c0.976 0 1.768-0.792 1.768-1.766v-28.467c-0.001-0.975-0.791-1.765-1.767-1.765z">
            </path>
        </symbol>
        <symbol id="instagram" viewBox="0 0 32 32" fill="#bcbcbc">
            <path
                d="M22.705 0h-13.409c-5.126 0-9.296 4.17-9.296 9.296v13.409c0 5.126 4.17 9.295 9.296 9.295h13.409c5.126 0 9.295-4.17 9.295-9.295v-13.409c0-5.126-4.17-9.296-9.295-9.296zM29.5 22.704c0 3.747-3.048 6.796-6.795 6.796h-13.409c-3.747 0-6.795-3.048-6.795-6.795v-13.409c0-3.747 3.048-6.795 6.795-6.795h13.409c3.747 0 6.796 3.048 6.796 6.795v13.409z">
            </path>
            <path
                d="M16 7.375c-4.756 0-8.625 3.869-8.625 8.625s3.869 8.625 8.625 8.625 8.625-3.869 8.625-8.625-3.869-8.625-8.625-8.625zM16 22.125c-3.377 0-6.125-2.748-6.125-6.125s2.748-6.125 6.125-6.125 6.125 2.748 6.125 6.125-2.748 6.125-6.125 6.125z">
            </path>
            <path
                d="M26 7.25c0 0.69-0.56 1.25-1.25 1.25s-1.25-0.56-1.25-1.25c0-0.69 0.56-1.25 1.25-1.25s1.25 0.56 1.25 1.25z">
            </path>
        </symbol>
        <symbol id="twitter" viewBox="0 0 32 32" fill="#bcbcbc">
            <path
                d="M32 6.078c-1.19 0.522-2.458 0.868-3.78 1.036 1.36-0.812 2.398-2.088 2.886-3.626-1.268 0.756-2.668 1.29-4.16 1.588-1.204-1.282-2.92-2.076-4.792-2.076-3.632 0-6.556 2.948-6.556 6.562 0 0.52 0.044 1.020 0.152 1.496-5.454-0.266-10.28-2.88-13.522-6.862-0.566 0.982-0.898 2.106-0.898 3.316 0 2.272 1.17 4.286 2.914 5.452-1.054-0.020-2.088-0.326-2.964-0.808 0 0.020 0 0.046 0 0.072 0 3.188 2.274 5.836 5.256 6.446-0.534 0.146-1.116 0.216-1.72 0.216-0.42 0-0.844-0.024-1.242-0.112 0.85 2.598 3.262 4.508 6.13 4.57-2.232 1.746-5.066 2.798-8.134 2.798-0.538 0-1.054-0.024-1.57-0.090 2.906 1.874 6.35 2.944 10.064 2.944 12.072 0 18.672-10 18.672-18.668 0-0.29-0.010-0.57-0.024-0.848 1.302-0.924 2.396-2.078 3.288-3.406z">
            </path>
        </symbol>
    </defs>
</svg>