<svg aria-hidden="true" style="position: absolute; width: 0; height: 0; overflow: hidden;" version="1.1"
    xmlns="http://www.w3.org/2000/svg" xmlns:xlink="http://www.w3.org/1999/xlink">
    <defs>
        <symbol id="diamond" viewBox="0 0 32 28">
            <path
                d="M3.313 12l9.734 10.391-4.688-10.391h-5.047zM16 24.063l5.453-12.063h-10.906zM8.406 10l3.187-6h-4.094l-4.5 6h5.406zM18.953 22.391l9.734-10.391h-5.047zM10.672 10h10.656l-3.187-6h-4.281zM23.594 10h5.406l-4.5-6h-4.094zM25.797 2.406l6 8c0.297 0.375 0.266 0.922-0.063 1.281l-15 16c-0.187 0.203-0.453 0.313-0.734 0.313s-0.547-0.109-0.734-0.313l-15-16c-0.328-0.359-0.359-0.906-0.063-1.281l6-8c0.187-0.266 0.484-0.406 0.797-0.406h18c0.313 0 0.609 0.141 0.797 0.406z">
            </path>
        </symbol>
        <symbol id="crossbow" viewBox="0 0 32 32">
            <path
                d="M30.402 12.803h-0.545c-0.265-8.038-6.433-12.118-7.156-12.568-0.623-0.383-1.427-0.292-1.949 0.22s-0.629 1.313-0.259 1.944l-9.057 10.63-9.345 0.719c-1.178 0.091-2.088 1.073-2.088 2.255s0.91 2.164 2.088 2.255l9.344 0.719 9.055 10.632c-0.288 0.493-0.289 1.103-0.004 1.598s0.814 0.799 1.385 0.797c0.295 0.002 0.585-0.080 0.837-0.235 0.718-0.447 6.886-4.527 7.151-12.565h0.545c0.883-0.001 1.599-0.717 1.6-1.6v-3.2c-0.001-0.883-0.717-1.599-1.6-1.6zM21.412 1.327c0.153-0.249 0.477-0.331 0.729-0.183 0.666 0.415 6.384 4.197 6.648 11.659h-1.067c-0.281-7.124-6.093-10.724-6.13-10.743-0.251-0.154-0.332-0.481-0.18-0.733zM21.272 3.128c1.022 0.716 5.139 3.951 5.384 9.675h-6.921c-0.017 0.003-0.035 0.006-0.052 0.010-0.018-0.001-0.035-0.001-0.053 0l-2.562 0.512-2.562-0.512c-0.027-0.002-0.053-0.002-0.080-0-0.022-0.004-0.043-0.007-0.065-0.009l-1.427 0.11 8.338-9.786zM14.935 15.47v-1.483l2.029 0.406c0.069 0.014 0.14 0.014 0.209 0l2.029-0.406v1.483h-4.267zM19.202 16.537v1.483l-2.029-0.406c-0.069-0.014-0.14-0.014-0.209 0l-2.029 0.406v-1.483h4.267zM11.958 14.060l1.91-0.147v1.557h-3.112l1.202-1.41zM9.108 16.198c0.029 0.050 0.059 0.101 0.088 0.151l1.263 1.483-8.287-0.637c-0.622-0.048-1.103-0.567-1.103-1.191s0.481-1.143 1.103-1.191l8.288-0.637-1.263 1.483c-0.029 0.050-0.059 0.101-0.088 0.151-0.049 0.125-0.049 0.264 0 0.389zM10.756 16.537h3.112v1.557l-1.911-0.147-1.201-1.41zM12.933 19.092l1.428 0.11c0.014 0.001 0.027 0.002 0.041 0.002 0.018-0.002 0.037-0.006 0.055-0.010 0.017 0.001 0.033 0.001 0.050-0l2.562-0.512 2.562 0.512c0.034 0.007 0.069 0.010 0.104 0.010l0 0h6.912c-0.103 2.618-1.058 5.13-2.72 7.155-0.764 0.961-1.658 1.811-2.657 2.524l-8.338-9.79zM22.141 30.863c-0.253 0.138-0.569 0.059-0.727-0.182-0.153-0.249-0.076-0.575 0.173-0.729 1.208-0.799 2.28-1.787 3.174-2.927 1.802-2.22 2.839-4.964 2.953-7.822h1.077c-0.264 7.462-5.982 11.244-6.649 11.66zM30.935 17.603c-0 0.294-0.239 0.533-0.533 0.533h-10.133v-1.6h8c0.295 0 0.533-0.239 0.533-0.533s-0.239-0.533-0.533-0.533h-8v-1.6h10.133c0.294 0 0.533 0.239 0.533 0.533v3.2z">
            </path>
        </symbol>
        <symbol id="joystick" viewBox="0 0 32 32">
            <path
                d="M12.267 21.866h-2.133v-2.133c0-0.294-0.239-0.533-0.533-0.533h-2.133c-0.295 0-0.533 0.239-0.533 0.533v2.133h-2.133c-0.295 0-0.533 0.239-0.533 0.533v2.133c0 0.294 0.239 0.533 0.533 0.533h2.133v2.133c0 0.294 0.239 0.533 0.533 0.533h2.133c0.294 0 0.533-0.239 0.533-0.533v-2.133h2.133c0.294 0 0.533-0.239 0.533-0.533v-2.133c0-0.294-0.239-0.533-0.533-0.533zM11.734 23.999h-2.133c-0.294 0-0.533 0.239-0.533 0.533v2.133h-1.066v-2.133c0-0.294-0.239-0.533-0.533-0.533h-2.133v-1.067h2.133c0.295 0 0.533-0.239 0.533-0.533v-2.133h1.066v2.133c0 0.294 0.239 0.533 0.533 0.533h2.133v1.067z">
            </path>
            <path
                d="M31.944 22.491c-0.409-3.675-3.86-7.113-7.538-7.505-0.312-0.034-0.626-0.052-0.941-0.053h-5.866v-2.133h-1.067v-1.066c0-1.178-0.955-2.133-2.133-2.133h-2.666c-0.589 0-1.066-0.477-1.066-1.066s0.477-1.066 1.066-1.066h8.532c1.178 0 2.133-0.955 2.133-2.133s-0.955-2.133-2.133-2.133h-2.666c-0.589 0-1.067-0.477-1.067-1.067v-2.133h-1.066v2.133c0 1.178 0.955 2.133 2.133 2.133h2.666c0.589 0 1.067 0.477 1.067 1.066s-0.477 1.066-1.067 1.066h-8.532c-1.178 0-2.133 0.955-2.133 2.133s0.955 2.133 2.133 2.133h2.666c0.589 0 1.066 0.477 1.066 1.066v1.066h-1.066v2.133h-5.866c-0.315 0.001-0.629 0.019-0.942 0.053-3.679 0.395-7.129 3.832-7.537 7.507-0.536 4.682 2.825 8.911 7.507 9.447 1.906 0.218 3.831-0.213 5.462-1.223 0.702-0.46 1.505-0.744 2.34-0.827 0.413-0.033 0.827-0.034 1.24-0.004 0.848 0.082 1.664 0.369 2.377 0.836 4.008 2.477 9.266 1.236 11.743-2.772 1.008-1.631 1.437-3.554 1.218-5.459zM15.467 13.867h1.066v1.066h-1.066v-1.066zM29.030 28.443c-2.411 2.697-6.409 3.275-9.486 1.373-0.859-0.559-1.842-0.9-2.863-0.993-0.225-0.016-0.452-0.025-0.681-0.025-0.243 0-0.48 0.010-0.719 0.029-1.006 0.096-1.973 0.434-2.82 0.984-3.506 2.169-8.107 1.086-10.277-2.421-0.883-1.427-1.259-3.111-1.068-4.778 0.351-3.158 3.43-6.225 6.591-6.565 0.275-0.031 0.551-0.047 0.827-0.047h14.931c0.276 0 0.552 0.015 0.827 0.044 3.161 0.34 6.239 3.407 6.591 6.565 0.251 2.121-0.424 4.247-1.854 5.834z">
            </path>
            <path
                d="M23.465 18.133c-1.178 0-2.133 0.955-2.133 2.133s0.955 2.133 2.133 2.133c1.178 0 2.133-0.955 2.133-2.133s-0.955-2.133-2.133-2.133zM23.465 21.332c-0.589 0-1.067-0.477-1.067-1.067s0.477-1.067 1.067-1.067 1.067 0.477 1.067 1.067-0.478 1.067-1.067 1.067z">
            </path>
            <path
                d="M23.465 24.532c-1.178 0-2.133 0.955-2.133 2.133s0.955 2.133 2.133 2.133c1.178 0 2.133-0.955 2.133-2.133s-0.955-2.133-2.133-2.133zM23.465 27.731c-0.589 0-1.067-0.477-1.067-1.067s0.477-1.067 1.067-1.067 1.067 0.477 1.067 1.067-0.478 1.067-1.067 1.067z">
            </path>
            <path
                d="M19.733 21.332c-1.178 0-2.133 0.955-2.133 2.133s0.955 2.133 2.133 2.133c1.178 0 2.133-0.955 2.133-2.133s-0.955-2.133-2.133-2.133zM19.733 24.532c-0.589 0-1.067-0.477-1.067-1.067s0.477-1.067 1.067-1.067 1.067 0.477 1.067 1.067-0.478 1.067-1.067 1.067z">
            </path>
            <path
                d="M27.198 21.332c-1.178 0-2.133 0.955-2.133 2.133s0.955 2.133 2.133 2.133c1.178 0 2.133-0.955 2.133-2.133s-0.955-2.133-2.133-2.133zM27.198 24.532c-0.589 0-1.067-0.477-1.067-1.067s0.477-1.067 1.067-1.067 1.067 0.477 1.067 1.067-0.478 1.067-1.067 1.067z">
            </path>
        </symbol>
        <symbol id="mobile" viewBox="0 0 32 32">
            <path
                d="M22.875 0h-13.75c-1.292 0-2.344 1.051-2.344 2.344v27.313c0 1.292 1.051 2.344 2.344 2.344h13.75c1.292 0 2.344-1.051 2.344-2.344v-27.313c0-1.292-1.051-2.344-2.344-2.344zM24.281 25.438h-13.281c-0.259 0-0.469 0.21-0.469 0.469s0.21 0.469 0.469 0.469h13.281v3.281c0 0.775-0.631 1.406-1.406 1.406h-13.75c-0.775 0-1.406-0.631-1.406-1.406v-3.281h1.406c0.259 0 0.469-0.21 0.469-0.469s-0.21-0.469-0.469-0.469h-1.406v-20.75h16.563v20.75zM24.281 3.75h-16.563v-1.406c0-0.775 0.631-1.406 1.406-1.406h13.75c0.775 0 1.406 0.631 1.406 1.406v1.406z">
            </path>
            <path
                d="M17.875 1.875h-1.875c-0.259 0-0.469 0.21-0.469 0.469s0.21 0.469 0.469 0.469h1.875c0.259 0 0.469-0.21 0.469-0.469s-0.21-0.469-0.469-0.469z">
            </path>
            <path
                d="M16 27.313c-0.775 0-1.406 0.631-1.406 1.406s0.631 1.406 1.406 1.406 1.406-0.631 1.406-1.406c0-0.775-0.631-1.406-1.406-1.406zM16 29.188c-0.258 0-0.469-0.21-0.469-0.469s0.21-0.469 0.469-0.469 0.469 0.21 0.469 0.469-0.21 0.469-0.469 0.469z">
            </path>
            <path
                d="M14.594 2.344c0 0.259-0.21 0.469-0.469 0.469s-0.469-0.21-0.469-0.469c0-0.259 0.21-0.469 0.469-0.469s0.469 0.21 0.469 0.469z">
            </path>
        </symbol>
        <symbol id="paint-bucket" viewBox="0 0 32 32">
            <path
                d="M13.298 10.766c-0.244-0.245-0.641-0.245-0.885 0s-0.245 0.64 0 0.885c0.244 0.244 0.641 0.244 0.885 0s0.245-0.641 0-0.885z">
            </path>
            <path
                d="M28.361 18.746l-10.255-10.255v-2.852c0-3.107-2.528-5.634-5.634-5.634s-5.634 2.528-5.634 5.634v7.184l-4.993 4.993c-0 0-0 0-0.001 0.001s-0 0-0.001 0.001l-0.929 0.929c-1.22 1.22-1.22 3.206 0 4.427l7.968 7.968c0.591 0.592 1.377 0.917 2.214 0.917s1.622-0.326 2.213-0.917l0.929-0.929c0-0 0-0 0-0s0-0 0-0l10.397-10.397h3.282c0.253 0 0.482-0.153 0.578-0.386s0.043-0.503-0.136-0.682zM17.044 14.127c0.122-0.122 0.282-0.183 0.442-0.183s0.321 0.061 0.443 0.183c0.118 0.118 0.184 0.275 0.184 0.443s-0.065 0.324-0.184 0.443c-0 0-0 0-0 0-0.118 0.118-0.275 0.183-0.442 0.183s-0.324-0.065-0.443-0.183c-0.118-0.118-0.183-0.275-0.183-0.443s0.065-0.325 0.183-0.443zM12.473 1.257c2.416 0 4.382 1.966 4.382 4.382v1.6l-1.774-1.774c-0.117-0.117-0.277-0.183-0.443-0.183s-0.325 0.066-0.443 0.183l-6.106 6.106v-5.932h-0c0-2.416 1.966-4.382 4.382-4.382zM12.425 30.255c-0.355 0.355-0.826 0.55-1.328 0.55s-0.973-0.195-1.328-0.55l-7.968-7.968c-0.732-0.733-0.732-1.924-0-2.656l0.487-0.487 10.624 10.624-0.487 0.486zM24.377 18.563c-0.166 0-0.325 0.066-0.443 0.183l-10.138 10.137-10.624-10.624 4.734-4.734c0-0 0-0 0-0l6.732-6.732 2.216 2.216v3.791c-0.254 0.090-0.493 0.237-0.696 0.44-0.355 0.355-0.55 0.826-0.55 1.328s0.195 0.974 0.55 1.328 0.826 0.55 1.328 0.55c0.501 0 0.973-0.195 1.328-0.55s0.551-0.827 0.551-1.329-0.196-0.974-0.551-1.328c-0.206-0.206-0.449-0.354-0.707-0.444v-2.535l8.301 8.301h-2.030z">
            </path>
            <path
                d="M11.528 12.537c-0.244-0.244-0.641-0.245-0.885 0l-5.313 5.312c-0.245 0.244-0.245 0.641-0 0.885 0.122 0.122 0.282 0.183 0.443 0.183s0.32-0.061 0.443-0.183l5.313-5.312c0.244-0.244 0.244-0.641 0-0.885z">
            </path>
            <path
                d="M29.463 23.212c-0.114-0.183-0.315-0.294-0.531-0.294s-0.416 0.111-0.531 0.294c-0.434 0.694-2.599 4.229-2.599 5.716 0 1.726 1.404 3.13 3.13 3.13s3.13-1.404 3.13-3.13c0-1.487-2.165-5.023-2.599-5.716zM28.932 30.806c-1.036 0-1.878-0.843-1.878-1.878 0-0.69 0.975-2.621 1.878-4.172 0.904 1.55 1.878 3.482 1.878 4.172 0 1.036-0.843 1.878-1.878 1.878z">
            </path>
        </symbol>
        <symbol id="plane" viewBox="0 0 32 32">
            <path
                d="M30.601 19.987l0.917-0.917c0.577-0.578 0.577-1.517 0-2.095-0.28-0.28-0.652-0.434-1.047-0.434-0.297 0-0.581 0.087-0.822 0.249l-0.193-0.649 0.993-0.993c0.578-0.578 0.578-1.517 0-2.094-0.532-0.532-1.37-0.573-1.95-0.125l-1.177-3.95c0.47-0.453 0.92-0.893 1.344-1.317 1.222-1.223 2.216-2.516 2.799-3.644 0.984-1.905 0.572-2.923 0.053-3.442s-1.537-0.931-3.442 0.054c-1.127 0.582-2.421 1.576-3.643 2.799-0.424 0.424-0.865 0.874-1.317 1.344l-3.95-1.177c0.447-0.58 0.407-1.418-0.125-1.95-0.578-0.577-1.517-0.578-2.094 0l-0.993 0.993-0.649-0.193c0.162-0.241 0.249-0.525 0.249-0.822 0-0.396-0.154-0.768-0.434-1.047-0.577-0.578-1.517-0.578-2.094 0l-0.917 0.917-4.674-1.392c-0.167-0.049-0.347-0.004-0.469 0.119l-1.203 1.203c-0.202 0.202-0.175 0.547 0.055 0.716l11.794 8.633c-2.659 2.998-5.221 6-7.029 8.145l-3.469-1.334c-0.174-0.067-0.372-0.025-0.504 0.107l-1.426 1.426c-0.184 0.185-0.184 0.484 0 0.668l7.13 7.13c0.182 0.182 0.486 0.182 0.669 0l1.426-1.426c0.132-0.132 0.174-0.33 0.107-0.504l-1.334-3.469c2.145-1.808 5.147-4.37 8.145-7.030l0.937 1.28c0.166 0.227 0.504 0.257 0.708 0.063 0.17-0.161 0.194-0.432 0.055-0.621l-0.99-1.353c1.568-1.399 3.116-2.811 4.521-4.142l4.453 14.95-0.614 0.614-6.121-8.362c-0.154-0.211-0.45-0.256-0.66-0.102s-0.257 0.45-0.102 0.661l6.446 8.807c0.169 0.23 0.514 0.257 0.715 0.055l1.203-1.203c0.123-0.123 0.168-0.303 0.119-0.469zM17.614 2.314c0.206-0.206 0.551-0.206 0.758 0 0.209 0.209 0.209 0.549 0 0.758l-0.222 0.222-1.168-0.348zM13.692 1.244c0.209-0.209 0.549-0.209 0.758 0s0.209 0.549 0 0.758l-0.146 0.146-1.167-0.348zM6.818 1.701l0.614-0.614 14.95 4.453c-1.33 1.405-2.742 2.954-4.142 4.522zM7.058 18.574l2.878 1.107c-0.722 0.86-1.275 1.525-1.602 1.918l-2.151-2.151zM9.005 22.271c1.648-1.988 10.357-12.436 16.096-18.175 1.138-1.139 2.381-2.096 3.409-2.627 0.772-0.399 1.804-0.761 2.34-0.225s0.173 1.568-0.225 2.34c-0.531 1.028-1.488 2.27-2.627 3.409-5.738 5.738-16.186 14.448-18.174 16.096zM13.52 25.036l-0.874 0.875-2.151-2.151c0.393-0.326 1.059-0.88 1.918-1.602zM30.092 17.644c0.209-0.209 0.549-0.209 0.758 0s0.209 0.549 0 0.758l-0.556 0.556-0.348-1.167zM29.023 13.722c0.209-0.209 0.549-0.209 0.758 0 0.206 0.206 0.206 0.551 0 0.758l-0.632 0.632-0.348-1.168z">
            </path>
            <path
                d="M28.373 27.253l-4.034 4.034c-0.172 0.172-0.183 0.456-0.025 0.641 0.177 0.206 0.501 0.219 0.694 0.027l4.034-4.034c0.185-0.185 0.185-0.484 0-0.669s-0.484-0.184-0.669 0z">
            </path>
            <path
                d="M27.025 25.905c0.185-0.184 0.185-0.484 0-0.668s-0.484-0.185-0.668 0l-2.521 2.521c-0.172 0.172-0.183 0.456-0.025 0.641 0.177 0.206 0.501 0.219 0.694 0.027z">
            </path>
            <path
                d="M25.512 23.384c0.185-0.185 0.185-0.484 0-0.669s-0.484-0.185-0.669 0l-1.765 1.765c-0.172 0.172-0.183 0.456-0.025 0.641 0.177 0.206 0.501 0.219 0.694 0.027z">
            </path>
            <path
                d="M4.84 3.304c-0.185-0.184-0.484-0.184-0.669 0l-4.034 4.034c-0.185 0.184-0.185 0.484 0 0.668 0.182 0.182 0.486 0.182 0.669 0l4.034-4.034c0.184-0.185 0.184-0.484 0-0.669z">
            </path>
            <path
                d="M6.857 5.321c-0.185-0.185-0.484-0.185-0.668 0l-2.521 2.521c-0.172 0.172-0.183 0.456-0.025 0.641 0.177 0.206 0.501 0.219 0.693 0.027l2.521-2.521c0.185-0.185 0.185-0.484 0-0.669z">
            </path>
            <path
                d="M6.945 9.267c0.182 0.182 0.486 0.182 0.669 0l1.765-1.765c0.184-0.185 0.184-0.484 0-0.669s-0.484-0.184-0.669 0l-1.765 1.765c-0.184 0.185-0.184 0.484 0 0.669z">
            </path>
        </symbol>
        <symbol id="star" viewBox="0 0 32 32">
            <path
                d="M31.935 12.299c-0.16-0.492-0.579-0.828-1.095-0.876l-9.783-0.907-1.939-4.503c-0.102-0.238-0.378-0.348-0.616-0.245s-0.348 0.378-0.245 0.616l2.049 4.759c0.068 0.158 0.216 0.265 0.387 0.281l10.061 0.933c0.2 0.018 0.269 0.168 0.29 0.232s0.052 0.226-0.098 0.358l-7.591 6.669c-0.129 0.113-0.186 0.288-0.148 0.455l2.222 9.856c0.044 0.196-0.077 0.308-0.131 0.347s-0.198 0.12-0.371 0.017l-8.688-5.159c-0.147-0.087-0.331-0.087-0.479 0l-8.688 5.159c-0.173 0.103-0.317 0.022-0.371-0.017s-0.175-0.152-0.131-0.347l1.147-5.088c0.057-0.253-0.102-0.503-0.354-0.56s-0.503 0.102-0.56 0.354l-1.147 5.088c-0.114 0.505 0.076 1.008 0.494 1.312s0.955 0.329 1.4 0.065l8.448-5.017 8.448 5.017c0.205 0.122 0.429 0.182 0.653 0.182 0.262 0 0.522-0.083 0.747-0.247 0.419-0.304 0.608-0.807 0.494-1.312l-2.16-9.585 7.382-6.485c0.389-0.342 0.531-0.86 0.371-1.352z">
            </path>
            <path
                d="M18.256 4.012l-1.085-2.521c-0.205-0.475-0.653-0.771-1.171-0.771s-0.966 0.295-1.171 0.771l-3.886 9.024-9.783 0.907c-0.515 0.048-0.935 0.383-1.095 0.876s-0.018 1.010 0.371 1.352l7.382 6.485-0.562 2.493c-0.057 0.253 0.102 0.503 0.354 0.56 0.035 0.008 0.069 0.012 0.104 0.012 0.214 0 0.408-0.148 0.457-0.366l0.623-2.765c0.038-0.167-0.019-0.342-0.148-0.455l-7.591-6.668c-0.151-0.132-0.119-0.294-0.098-0.358s0.090-0.213 0.29-0.232l10.060-0.933c0.171-0.016 0.319-0.124 0.387-0.281l3.996-9.28c0.079-0.184 0.243-0.204 0.31-0.204s0.231 0.020 0.31 0.204l1.085 2.52c0.102 0.238 0.378 0.348 0.616 0.245s0.347-0.378 0.245-0.616z">
            </path>
        </symbol>
        <symbol id="wand" viewBox="0 0 32 32">
            <path
                d="M27.887 4.302l-0.513-0.513c-0.198-0.198-0.46-0.306-0.74-0.306s-0.542 0.109-0.742 0.309l-25.539 25.891c-0.434 0.434-0.434 1.139 0 1.573l0.419 0.419c0.217 0.217 0.501 0.325 0.786 0.325s0.571-0.109 0.79-0.327l25.539-25.892c0.198-0.198 0.306-0.46 0.306-0.74s-0.109-0.542-0.306-0.74zM1.681 31.011c-0.067 0.067-0.177 0.067-0.245 0l-0.419-0.419c-0.068-0.067-0.068-0.177 0.002-0.247l20.997-21.287 0.664 0.664-21 21.289zM27.221 5.119l-3.88 3.934-0.664-0.664 3.882-3.936c0.042-0.042 0.11-0.042 0.151 0l0.513 0.513c0.042 0.042 0.042 0.11-0.002 0.154z">
            </path>
            <path
                d="M31.448 6.647c-0.398-1.327-1.282-2.723-2.489-3.93l-0.664 0.664c1.099 1.099 1.9 2.355 2.254 3.536 0.324 1.081 0.231 1.948-0.262 2.441l0.664 0.664c0.749-0.749 0.925-1.947 0.497-3.375z">
            </path>
            <path
                d="M23.564 0l0.009 0.939c0.009-0 0.018-0 0.028-0 1.070 0 2.409 0.563 3.68 1.547l0.575-0.743c-1.446-1.12-3.011-1.754-4.292-1.744z">
            </path>
            <path
                d="M22.318 1.389l-0.664-0.664c-0.629 0.629-0.858 1.609-0.646 2.76l0.924-0.17c-0.109-0.593-0.131-1.409 0.387-1.926z">
            </path>
            <path
                d="M22.241 4.353l-0.871 0.352c0.174 0.43 0.396 0.867 0.662 1.298l0.8-0.492c-0.238-0.387-0.437-0.776-0.591-1.158z">
            </path>
            <path
                d="M28.949 10.083l-0.664-0.664-0.664 0.664-0.664-0.664-0.664 0.664 0.664 0.664-0.664 0.664 0.664 0.664 0.664-0.664 0.664 0.664 0.664-0.664-0.664-0.664z">
            </path>
            <path
                d="M16.27 5.856l-0.664-0.664-0.664 0.664-0.664-0.664-0.664 0.664 0.664 0.664-0.664 0.664 0.664 0.664 0.664-0.664 0.664 0.664 0.664-0.664-0.664-0.664z">
            </path>
            <path
                d="M22.844 15.718l-0.664-0.664-0.664 0.664-0.664-0.664-0.664 0.664 0.664 0.664-0.664 0.664 0.664 0.664 0.664-0.664 0.664 0.664 0.664-0.664-0.664-0.664z">
            </path>
            <path d="M23.864 14.973h0.939v0.939h-0.939v-0.939z"></path>
            <path d="M25.742 19.904h0.939v0.939h-0.939v-0.939z"></path>
            <path d="M16.35 21.665h0.939v0.939h-0.939v-0.939z"></path>
            <path d="M29.499 14.034h0.939v0.939h-0.939v-0.939z"></path>
            <path d="M28.090 7.46h0.939v0.939h-0.939v-0.939z"></path>
            <path d="M24.803 14.034h0.939v0.939h-0.939v-0.939z"></path>
            <path d="M17.289 7.46h0.939v0.939h-0.939v-0.939z"></path>
            <path d="M31.033 0.428h0.939v0.939h-0.939v-0.939z"></path>
            <path d="M18.228 1.825h0.939v0.939h-0.939v-0.939z"></path>
            <path d="M11.184 8.399h0.939v0.939h-0.939v-0.939z"></path>
            <path d="M12.124 14.034h0.939v0.939h-0.939v-0.939z"></path>
            <path d="M16.35 8.399h0.939v0.939h-0.939v-0.939z"></path>
        </symbol>
    </defs>
</svg>